<svg width="20" height="20" viewBox="0 0 20 20" fill="none" xmlns="http://www.w3.org/2000/svg">
<g filter="url(#filter0_d_591_5434)">
<path d="M12.5569 4C11.5711 4 10.6448 4.47684 10 5.28278C9.35519 4.47684 8.42892 4 7.44309 4C5.54588 4 4.00161 5.74283 4.00161 7.8668C3.93013 10.7833 6.25175 12.8384 8.71187 15.0144C9.03055 15.2965 9.35221 15.5802 9.67238 15.8707C9.76769 15.958 9.88385 16 10 16C10.1162 16 10.2323 15.9563 10.3276 15.8707C10.6493 15.5802 10.9709 15.2948 11.2881 15.0144C13.7468 12.8384 16.0699 10.7833 15.9984 7.88359C15.9984 5.74283 14.4541 4 12.5569 4Z" fill="url(#paint0_linear_591_5434)"/>
</g>
<defs>
<filter id="filter0_d_591_5434" x="0" y="0" width="20" height="20" filterUnits="userSpaceOnUse" color-interpolation-filters="sRGB">
<feFlood flood-opacity="0" result="BackgroundImageFix"/>
<feColorMatrix in="SourceAlpha" type="matrix" values="0 0 0 0 0 0 0 0 0 0 0 0 0 0 0 0 0 0 127 0" result="hardAlpha"/>
<feOffset/>
<feGaussianBlur stdDeviation="2"/>
<feComposite in2="hardAlpha" operator="out"/>
<feColorMatrix type="matrix" values="0 0 0 0 0 0 0 0 0 0 0 0 0 0 0 0 0 0 0.5 0"/>
<feBlend mode="normal" in2="BackgroundImageFix" result="effect1_dropShadow_591_5434"/>
<feBlend mode="normal" in="SourceGraphic" in2="effect1_dropShadow_591_5434" result="shape"/>
</filter>
<linearGradient id="paint0_linear_591_5434" x1="15.0769" y1="5.23077" x2="5.74359" y2="14.4103" gradientUnits="userSpaceOnUse">
<stop stop-color="#FF4B7B"/>
<stop offset="1" stop-color="#FA114F"/>
</linearGradient>
</defs>
</svg>
